inDegrees=yes
name=ik_coleta1_trike_mov
DataType=double
version=3
OpenSimVersion=4.4-2022-07-23-0e9fedc
endheader
time	pelvis_tilt	pelvis_tx	pelvis_ty	hip_flexion_r	knee_angle_r	ankle_angle_r	hip_flexion_l	knee_angle_l	ankle_angle_l	lumbar_extension	gearToGround_coord_0	rightPedalToGear_coord_0	leftPedalToGear_coord_0
22.52254581451416	67.73318405684894	-0.7	0.0500000000000003	52.23318405684758	-75.82593106546724	-1.039076492892845e-12	80.38799999999991	-84.66000000000004	5.05043721578303e-13	2.071017320375504e-12	0	-114.0000000000003	-139.067795130823
22.52849292755127	67.73318365970022	-0.7	0.0500000000000003	52.23318365969889	-76.29544515930472	-1.039076492892845e-12	80.38799999999991	-84.66000000000004	5.05043721578303e-13	2.071017320375504e-12	0	-114.0000000000003	-139.067795130823
22.54252195358276	67.73318365970022	-0.7	0.0500000000000003	52.23318365969889	-76.29544515930472	-1.039076492892845e-12	80.38799999999991	-84.66000000000004	5.05043721578303e-13	2.071017320375504e-12	0	-114.0000000000003	-139.067795130823
22.54848575592041	67.73134965050713	-0.7	0.0500000000000003	52.23134965050578	-76.7069021387701	-1.039076492892845e-12	80.38799999999991	-84.66000000000004	5.05043721578303e-13	2.071017320375504e-12	0	-114.0000000000003	-139.067795130823
22.55653977394104	67.73131279348455	-0.7	0.0500000000000003	52.23131279348321	-77.05761273496289	-1.039076492892845e-12	80.38799999999991	-84.66000000000004	5.05043721578303e-13	2.071017320375504e-12	0	-114.0000000000003	-139.067795130823
22.56149291992188	67.88553354146214	-0.7	0.0500000000000003	52.38553354146082	-77.36573978841417	-1.039076492892845e-12	80.38799999999991	-84.66000000000004	5.05043721578303e-13	2.071017320375504e-12	0	-114.0000000000003	-139.067795130823
22.56650805473328	67.88533208818231	-0.7	0.0500000000000003	52.38533208818098	-77.6635106914554	-1.039076492892845e-12	80.38799999999991	-84.66000000000004	5.05043721578303e-13	2.071017320375504e-12	0	-114.0000000000003	-139.067795130823
22.57250690460205	68.24939952524511	-0.7	0.0500000000000003	52.7493995252438	-78.39065851177448	-1.039076492892845e-12	80.38799999999991	-84.66000000000004	5.05043721578303e-13	2.071017320375504e-12	0	-114.0000000000003	-139.067795130823
22.57948994636536	68.24892644622031	-0.7	0.0500000000000003	52.74892644621901	-79.10303217703827	-1.039076492892845e-12	80.38799999999991	-84.66000000000004	5.05043721578303e-13	2.071017320375504e-12	0	-114.0000000000003	-139.067795130823
22.58549189567566	69.04280885548815	-0.7	0.0500000000000003	53.54280885548685	-80.68867497202605	-1.039076492892845e-12	80.38799999999991	-84.66000000000004	5.05043721578303e-13	2.071017320375504e-12	0	-114.0000000000003	-139.067795130823
22.58848881721497	69.04160533893507	-0.7	0.0500000000000003	53.54160533893383	-80.53486020976709	-1.039076492892845e-12	80.38799999999991	-84.66000000000004	5.05043721578303e-13	2.071017320375504e-12	0	-114.0000000000003	-139.067795130823
22.59249997138977	69.50930621933151	-0.7	0.0500000000000003	54.00930621933026	-81.46879344126803	-1.039076492892845e-12	80.38799999999991	-84.66000000000004	5.05043721578303e-13	2.071017320375504e-12	0	-114.0000000000003	-139.067795130823
22.5975170135498	69.50868104217717	-0.7	0.0500000000000003	54.00868104217592	-82.21028055913318	-1.039076492892845e-12	80.38799999999991	-84.66000000000004	5.05043721578303e-13	2.071017320375504e-12	0	-114.0000000000003	-139.067795130823
22.60951089859009	69.50723414890496	-0.7	0.0500000000000003	54.00723414890375	-82.27790949816828	-1.039076492892845e-12	80.38799999999991	-84.66000000000004	5.05043721578303e-13	2.071017320375504e-12	0	-114.0000000000003	-139.067795130823
22.61449909210205	69.66712720447171	-0.7	0.0500000000000003	54.16712720447051	-82.60658352634752	-1.039076492892845e-12	80.38799999999991	-84.66000000000004	5.05043721578303e-13	2.071017320375504e-12	0	-114.0000000000003	-139.067795130823
22.61849594116211	69.66676400153699	-0.7	0.0500000000000003	54.1667640015358	-82.14300747625703	-1.039076492892845e-12	80.38799999999991	-84.66000000000004	5.05043721578303e-13	2.071017320375504e-12	0	-114.0000000000003	-139.067795130823
22.62749695777893	69.66675809066255	-0.7	0.0500000000000003	54.16675809066136	-81.67533190282526	-1.039076492892845e-12	80.38799999999991	-84.66000000000004	5.05043721578303e-13	2.071017320375504e-12	0	-114.0000000000003	-139.067795130823
22.63249683380127	69.88217110599831	-0.7	0.0500000000000003	54.38217110599712	-82.10526219869652	-1.039076492892845e-12	80.38799999999991	-84.66000000000004	5.05043721578303e-13	2.071017320375504e-12	0	-114.0000000000003	-139.067795130823
22.63652491569519	69.88179836266815	-0.7	0.0500000000000003	54.38179836266696	-81.55262006374693	-1.039076492892845e-12	80.38799999999991	-84.66000000000004	5.05043721578303e-13	2.071017320375504e-12	0	-114.0000000000003	-139.067795130823
22.64151382446289	70.86304981630532	-0.7	0.0500000000000003	55.36304981630412	-83.5118015218861	-1.039076492892845e-12	80.38799999999991	-84.66000000000004	5.05043721578303e-13	2.071017320375504e-12	0	-114.0000000000003	-139.067795130823
22.64548993110657	70.86152571185345	-0.7	0.0500000000000003	55.36152571185224	-82.88240117593892	-1.039076492892845e-12	80.38799999999991	-84.66000000000004	5.05043721578303e-13	2.071017320375504e-12	0	-114.0000000000003	-139.067795130823
22.65048503875732	72.10938393168631	-0.7	0.0500000000000003	56.60938393168509	-85.37400282842002	-1.039076492892845e-12	80.38799999999991	-84.66000000000004	5.05043721578303e-13	2.071017320375504e-12	0	-114.0000000000003	-139.067795130823
22.65451598167419	72.10744970797535	-0.7	0.0500000000000003	56.60744970797412	-84.6382359249388	-1.039076492892845e-12	80.38799999999991	-84.66000000000004	5.05043721578303e-13	2.071017320375504e-12	0	-114.0000000000003	-139.067795130823
22.65949392318726	73.1744431192715	-0.7	0.0500000000000003	57.67444311927026	-86.76866013146797	-1.039076492892845e-12	80.38799999999991	-84.66000000000004	5.05043721578303e-13	2.071017320375504e-12	0	-114.0000000000003	-139.067795130823
22.66549873352051	73.62932462753459	-0.7	0.0500000000000003	58.12932462753334	-87.68030248154641	-1.039076492892845e-12	80.38799999999991	-84.66000000000004	5.05043721578303e-13	2.071017320375504e-12	0	-114.0000000000003	-139.067795130823
22.67648983001709	73.62854186233817	-0.7	0.0500000000000003	58.12854186233692	-86.8590740375884	-1.039076492892845e-12	80.38799999999991	-84.66000000000004	5.05043721578303e-13	2.071017320375504e-12	0	-114.0000000000003	-139.067795130823
22.68349289894104	74.13350051715487	-0.7	0.0500000000000003	58.63350051715364	-87.8670894970718	-1.039076492892845e-12	80.38799999999991	-84.66000000000004	5.05043721578303e-13	2.071017320375504e-12	0	-114.0000000000003	-139.067795130823
22.68750691413879	74.13266749571017	-0.7	0.0500000000000003	58.63266749570893	-87.00649360103093	-1.039076492892845e-12	80.38799999999991	-84.66000000000004	5.05043721578303e-13	2.071017320375504e-12	0	-114.0000000000003	-139.067795130823
22.6915078163147	74.63925047700548	-0.7	0.0500000000000003	59.13925047700425	-88.01774071667533	-1.039076492892845e-12	80.38799999999991	-84.66000000000004	5.05043721578303e-13	2.071017320375504e-12	0	-114.0000000000003	-139.067795130823
22.69748997688293	74.63837453115748	-0.7	0.0500000000000003	59.13837453115624	-86.70734375108952	-1.039076492892845e-12	80.38799999999991	-84.66000000000004	5.05043721578303e-13	2.071017320375504e-12	0	-114.0000000000003	-139.067795130823
22.70249390602112	75.82877817375356	-0.7	0.0500000000000003	60.32877817375232	-89.08387323980131	-1.039076492892845e-12	80.38799999999991	-84.66000000000004	5.05043721578303e-13	2.071017320375504e-12	0	-114.0000000000003	-139.067795130823
22.70651173591614	75.82690821721043	-0.7	0.0500000000000003	60.32690821720919	-88.11955802259507	-1.039076492892845e-12	80.38799999999991	-84.66000000000004	5.05043721578303e-13	2.071017320375504e-12	0	-114.0000000000003	-139.067795130823
22.71650290489197	77.08525466438547	-0.7	0.0500000000000003	61.58525466438423	-90.63198042678884	-1.039076492892845e-12	80.38799999999991	-84.66000000000004	5.05043721578303e-13	2.071017320375504e-12	0	-114.0000000000003	-139.067795130823
22.72652292251587	78.09786670277771	-0.7	0.0500000000000003	62.59786670277646	-92.65791583045461	-1.039076492892845e-12	80.38799999999991	-84.66000000000004	5.05043721578303e-13	2.071017320375504e-12	0	-114.0000000000003	-139.067795130823
22.73149394989014	79.07913167094623	-0.7	0.0500000000000003	63.579131670945	-94.62055261127719	-1.039076492892845e-12	80.38799999999991	-84.66000000000004	5.05043721578303e-13	2.071017320375504e-12	0	-114.0000000000003	-139.067795130823
22.73953986167908	79.07754000875413	-0.7	0.0500000000000003	63.57754000875289	-93.60215414490364	-1.039076492892845e-12	80.38799999999991	-84.66000000000004	5.05043721578303e-13	2.071017320375504e-12	0	-114.0000000000003	-139.067795130823
22.74651479721069	80.05285997938687	-0.7	0.0500000000000003	64.55285997938563	-95.54939006820996	-1.039076492892845e-12	80.38799999999991	-84.66000000000004	5.05043721578303e-13	2.071017320375504e-12	0	-114.0000000000003	-139.067795130823
22.75656914710999	81.49538123074805	-0.7	0.0500000000000003	65.99538123074682	-98.43288633698913	-1.039076492892845e-12	80.38799999999991	-84.66000000000004	5.05043721578303e-13	2.071017320375504e-12	0	-114.0000000000003	-139.067795130823
22.76449513435364	81.49308776870322	-0.7	0.0500000000000003	65.99308776870198	-97.36750938190302	-1.039076492892845e-12	80.38799999999991	-84.66000000000004	5.05043721578303e-13	2.071017320375504e-12	0	-114.0000000000003	-139.067795130823
22.76849102973938	82.38715257441129	-0.7	0.0500000000000003	66.88715257441005	-99.15252979290332	-1.039076492892845e-12	80.38799999999991	-84.66000000000004	5.05043721578303e-13	2.071017320375504e-12	0	-114.0000000000003	-139.067795130823
22.77251195907593	82.38571026617754	-0.7	0.0500000000000003	66.8857102661763	-98.02772217085713	-1.039076492892845e-12	80.38799999999991	-84.66000000000004	5.05043721578303e-13	2.071017320375504e-12	0	-114.0000000000003	-139.067795130823
